<svg version="1.1"
      xmlns="http://www.w3.org/2000/svg"
      xmlns:xlink="http://www.w3.org/1999/xlink"  id="snapshot-34416" width="250" height="250" viewBox="0 0 250 250"><desc>This image was made on Patterninja.com</desc><defs>
<!-- image 41041 -->
<g id="transformed-41041" data-image="41041" transform="translate(-125, -125) rotate(0, 125, 125)"><g><svg version="1.1" width="250px" height="250px" viewBox="0 0 250 250"><g id="original-41041"><svg xmlns="http://www.w3.org/2000/svg" viewBox="0 0 400 400" xmlns:xlink="http://www.w3.org/1999/xlink" version="1.1" preserveAspectRatio="xMidYMid meet">
  <path d="M261.8 254.6c-2-1.9-5.1-1.9-7.1.1-1.9 2-1.9 5.1.1 7.1l15.1 14.8c1 1 2.2 1.4 3.5 1.4 1.3 0 2.6-.5 3.6-1.5 1.9-2 1.9-5.1-.1-7.1l-15.1-14.8z" fill="rgba(87, 40, 150, 1)" stroke="none"/>
  <path d="M138.5 142.8c1.3 0 2.6-.5 3.6-1.5 1.9-2 1.9-5.1-.1-7.1l-16.8-16.5c-2-1.9-5.1-1.9-7.1.1-1.9 2-1.9 5.1.1 7.1l16.8 16.5c.9 1 2.2 1.4 3.5 1.4z" fill="rgba(87, 40, 150, 1)" stroke="none"/>
  <path d="M138.8 256.8L121.9 274c-1.9 2-1.9 5.1.1 7.1 1 1 2.2 1.4 3.5 1.4 1.3 0 2.6-.5 3.6-1.5l16.9-17.2c1.9-2 1.9-5.1-.1-7.1-2-1.9-5.2-1.9-7.1.1z" fill="rgba(87, 40, 150, 1)" stroke="none"/>
  <path d="M284.1 118.7c-2-1.9-5.1-1.9-7.1.1l-14.7 14.9c-1.9 2-1.9 5.1.1 7.1 1 1 2.2 1.4 3.5 1.4 1.3 0 2.6-.5 3.6-1.5l14.7-14.9c1.9-2 1.9-5.2-.1-7.1z" fill="rgba(87, 40, 150, 1)" stroke="none"/>
  <path d="M260.1 226.5c2.8 0 5-2.2 5-5s-2.2-5-5-5c-9.5 0-17.2-7.7-17.2-17.2s7.7-17.2 17.2-17.2c2.8 0 5-2.2 5-5s-2.2-5-5-5c-15 0-27.2 12.2-27.2 27.2s12.2 27.2 27.2 27.2z" fill="rgba(87, 40, 150, 1)" stroke="none"/>
  <path d="M139.3 172c-2.8 0-5 2.2-5 5s2.2 5 5 5c9.5 0 17.2 7.7 17.2 17.2s-7.7 17.2-17.2 17.2c-2.8 0-5 2.2-5 5s2.2 5 5 5c15 0 27.2-12.2 27.2-27.2.1-14.9-12.1-27.2-27.2-27.2z" fill="rgba(87, 40, 150, 1)" stroke="none"/>
  <path d="M199.7 231.1c-15 0-27.2 12.2-27.2 27.2 0 2.8 2.2 5 5 5s5-2.2 5-5c0-9.5 7.7-17.2 17.2-17.2s17.2 7.7 17.2 17.2c0 2.8 2.2 5 5 5s5-2.2 5-5c.1-15-12.1-27.2-27.2-27.2z" fill="rgba(87, 40, 150, 1)" stroke="none"/>
  <path d="M222 132.6c-2.8 0-5 2.2-5 5 0 9.5-7.7 17.2-17.2 17.2s-17.2-7.7-17.2-17.2c0-2.8-2.2-5-5-5s-5 2.2-5 5c0 15 12.2 27.2 27.2 27.2s27.2-12.2 27.2-27.2c0-2.8-2.3-5-5-5z" fill="rgba(87, 40, 150, 1)" stroke="none"/>
  <circle cx="238.4" cy="110.1" r="5.1" fill="rgba(87, 40, 150, 1)" stroke="none"/>
  <circle cx="289.6" cy="162.7" r="5.1" fill="rgba(87, 40, 150, 1)" stroke="none"/>
  <circle cx="289.6" cy="237.5" r="5.1" fill="rgba(87, 40, 150, 1)" stroke="none"/>
  <circle cx="238.4" cy="288.4" r="5.1" fill="rgba(87, 40, 150, 1)" stroke="none"/>
  <circle cx="165.2" cy="288.4" r="5.1" fill="rgba(87, 40, 150, 1)" stroke="none"/>
  <circle cx="109.2" cy="233.5" r="5.1" fill="rgba(87, 40, 150, 1)" stroke="none"/>
  <circle cx="109.2" cy="157.6" r="5.1" fill="rgba(87, 40, 150, 1)" stroke="none"/>
  <circle cx="161.5" cy="109.1" r="5.1" fill="rgba(87, 40, 150, 1)" stroke="none"/>
  <path d="M185 214.3c1 .9 2.2 1.4 3.5 1.4 1.3 0 2.6-.5 3.6-1.5l8.6-8.9 8.6 8.9c1 1 2.3 1.5 3.6 1.5 1.3 0 2.5-.5 3.5-1.4 2-1.9 2-5.1.1-7.1l-8.9-9.2 8.9-9.2c1.9-2 1.9-5.2-.1-7.1-2-1.9-5.2-1.9-7.1.1l-8.6 8.9-8.6-8.9c-1.9-2-5.1-2-7.1-.1s-2 5.1-.1 7.1l8.9 9.2-8.9 9.2c-1.9 2-1.9 5.2.1 7.1z" fill="rgba(87, 40, 150, 1)" stroke="none"/>
</svg>
</g></svg></g></g>
<!-- /image 41041 -->
</defs><rect x="0" y="0" width="250" height="250" fill="rgba(135, 156, 214, 1)"></rect><use xlink:href="#transformed-41041" transform="translate(-250, -250)"></use><use xlink:href="#transformed-41041" transform="translate(0, -250)"></use><use xlink:href="#transformed-41041" transform="translate(250, -250)"></use><use xlink:href="#transformed-41041" transform="translate(-250, 0)"></use><use xlink:href="#transformed-41041" transform="translate(0, 0)"></use><use xlink:href="#transformed-41041" transform="translate(250, 0)"></use><use xlink:href="#transformed-41041" transform="translate(-250, 250)"></use><use xlink:href="#transformed-41041" transform="translate(0, 250)"></use><use xlink:href="#transformed-41041" transform="translate(250, 250)"></use></svg>